<?xml version="1.0" standalone="no"?>
<!DOCTYPE svg PUBLIC "-//W3C//DTD SVG 20010904//EN"
 "http://www.w3.org/TR/2001/REC-SVG-20010904/DTD/svg10.dtd">
<svg version="1.0" xmlns="http://www.w3.org/2000/svg"
 width="120.000000pt" height="120.000000pt" viewBox="0 0 120.000000 120.000000"
 preserveAspectRatio="xMidYMid meet">

<g transform="translate(0.000000,120.000000) scale(0.100000,-0.100000)"
fill="#000000" stroke="none">
<path d="M200 1160 c-88 -95 -124 -261 -86 -406 23 -89 86 -194 117 -194 43 0
65 55 35 89 -8 9 -27 41 -42 71 -26 50 -29 64 -28 155 0 92 3 105 32 162 17
34 36 64 42 68 18 11 11 63 -9 75 -28 14 -30 14 -61 -20z"/>
<path d="M942 1174 c-25 -17 -28 -40 -8 -63 8 -9 25 -39 40 -66 61 -119 55
-253 -16 -370 -38 -63 -39 -67 -23 -91 19 -30 46 -31 71 -1 119 137 137 362
43 522 -23 39 -65 85 -78 85 -4 0 -17 -7 -29 -16z"/>
<path d="M371 1087 c-14 -7 -38 -39 -55 -72 -26 -52 -30 -71 -31 -140 0 -66 5
-90 26 -135 34 -70 60 -94 93 -86 38 9 43 45 12 91 -27 39 -46 94 -46 132 0
30 35 121 55 143 34 38 -8 90 -54 67z"/>
<path d="M791 1084 c-28 -20 -27 -30 10 -98 40 -73 43 -140 11 -208 -12 -26
-26 -49 -32 -53 -28 -18 2 -74 41 -75 34 0 85 85 99 167 24 142 -60 315 -129
267z"/>
<path d="M554 1003 c-12 -2 -34 -18 -50 -34 -26 -27 -29 -37 -29 -94 0 -58 3
-67 31 -97 l32 -33 -35 -80 c-19 -44 -40 -93 -48 -110 -7 -16 -23 -52 -34 -80
-12 -27 -31 -66 -42 -86 -10 -20 -19 -41 -19 -47 0 -5 -17 -48 -38 -94 -76
-165 -84 -185 -80 -214 2 -25 8 -29 35 -32 29 -3 34 1 53 38 22 43 40 54 125
75 78 21 193 51 273 74 l73 20 40 -87 c52 -115 53 -116 78 -120 50 -8 64 35
32 102 -11 23 -42 95 -71 161 -29 66 -67 153 -86 193 -19 40 -34 75 -34 78 0
3 -12 31 -26 62 -42 93 -43 96 -53 123 -8 22 -6 31 15 50 51 48 56 144 10 194
-37 39 -84 51 -152 38z m105 -468 c1 -10 -105 -55 -127 -55 -6 0 8 41 31 92
l42 91 27 -59 c15 -32 27 -63 27 -69z m51 -107 c0 -5 9 -28 20 -50 11 -23 19
-43 17 -44 -2 -3 -100 31 -161 55 -35 14 -34 16 40 45 57 22 84 20 84 -6z
m-112 -123 c62 -22 112 -42 112 -45 0 -3 -33 -13 -72 -22 -40 -9 -109 -25
-152 -37 -44 -12 -83 -20 -87 -19 -4 2 4 26 17 53 13 28 23 55 24 60 0 15 31
57 39 53 4 -2 57 -21 119 -43z"/>
</g>
</svg>
